<svg width="137" height="40" viewBox="0 0 137 40" fill="none" xmlns="http://www.w3.org/2000/svg">
<path d="M131.648 39.9299L5.12914 39.9299C2.347 39.9299 0.0684052 37.7085 0.0684052 34.9963L0.0684052 5.39527C0.0684052 2.68307 2.347 0.461761 5.12914 0.461761L131.648 0.461761C134.43 0.461761 136.708 2.68307 136.708 5.39527V34.9963C136.708 37.7085 134.43 39.9299 131.648 39.9299Z" fill="black"/>
<path fill-rule="evenodd" clip-rule="evenodd" d="M5.07407 0L131.926 0C134.715 0 137 2.25125 137 5V35C137 37.7488 134.715 40 131.926 40L5.07407 40C2.2846 40 0 37.7488 0 35L0 5C0 2.25125 2.2846 0 5.07407 0ZM136 5.15528C136 2.86425 134.094 1 131.751 1L5.24919 1C2.90638 1 1 2.86425 1 5.15528L1 34.8447C1 37.1358 2.90638 39 5.24919 39L131.751 39C134.094 39 136 37.1358 136 34.8447V5.15528Z" fill="#A6A6A6"/>
<path d="M48.0619 10.5693C48.0619 11.3932 47.8089 12.053 47.3104 12.5452C46.7373 13.1286 45.9908 13.4221 45.0761 13.4221C44.2018 13.4221 43.4554 13.1236 42.843 12.5353C42.2294 11.9383 41.9232 11.2057 41.9232 10.3288C41.9232 9.45185 42.2294 8.71923 42.843 8.12721C43.4554 7.53395 44.2018 7.23547 45.0761 7.23547C45.5113 7.23547 45.9263 7.32304 46.3223 7.48585C46.717 7.64989 47.0384 7.8719 47.2712 8.14571L46.7423 8.66619C46.3362 8.19874 45.7833 7.9681 45.0761 7.9681C44.4384 7.9681 43.8856 8.18517 43.4162 8.62302C42.9518 9.06211 42.719 9.63069 42.719 10.3288C42.719 11.0269 42.9518 11.6004 43.4162 12.0395C43.8856 12.4724 44.4384 12.6944 45.0761 12.6944C45.753 12.6944 46.3223 12.4724 46.7714 12.0345C47.0675 11.7447 47.2358 11.3451 47.28 10.8345H45.0761V10.1216H48.0164C48.0518 10.2758 48.0619 10.425 48.0619 10.5693Z" fill="white" stroke="white" stroke-width="0.625"/>
<path d="M52.7267 8.0976H49.9648V9.97233H52.4547V10.6852H49.9648V12.56H52.7267V13.2864H49.1829V7.37114H52.7267V8.0976Z" fill="white" stroke="white" stroke-width="0.625"/>
<path fill-rule="evenodd" clip-rule="evenodd" d="M53.2302 7.05864H58.0265V8.4101H56.3312V13.2864V13.5989H56.0187H54.9243V8.4101H53.2302V7.05864Z" fill="white"/>
<path d="M60.7328 13.2864V7.37114H61.5134V13.2864H60.7328Z" fill="white" stroke="white" stroke-width="0.625"/>
<path d="M64.9737 13.2864H64.1981V8.0976H62.4977V7.37114H66.6741V8.0976H64.9737V13.2864Z" fill="white" stroke="white" stroke-width="0.625"/>
<path fill-rule="evenodd" clip-rule="evenodd" d="M72.3472 13.4221C73.2315 13.4221 73.9729 13.1236 74.5714 12.5254C75.1685 11.9285 75.4658 11.1959 75.4658 10.3288C75.4658 9.46665 75.1685 8.73896 74.5663 8.13707C73.9679 7.53395 73.2265 7.23547 72.3472 7.23547C71.4577 7.23547 70.7163 7.53395 70.1179 8.13214C69.5207 8.72909 69.2234 9.46172 69.2234 10.3288C69.2234 11.1959 69.5207 11.9285 70.1179 12.5254C70.7163 13.1236 71.4577 13.4221 72.3472 13.4221ZM72.3472 12.6944C71.6943 12.6944 71.1465 12.4724 70.6961 12.0296C70.2469 11.5868 70.0192 11.0182 70.0192 10.3288C70.0192 9.63933 70.2469 9.07074 70.6961 8.62796C71.1465 8.18517 71.6943 7.96317 72.3472 7.96317C72.9949 7.96317 73.5478 8.18517 73.9932 8.62796C74.4423 9.07074 74.67 9.63933 74.67 10.3288C74.67 11.0182 74.4423 11.5868 73.9932 12.0296C73.5478 12.4724 72.9949 12.6944 72.3472 12.6944Z" fill="white"/>
<path d="M74.5714 12.5254L74.7923 12.7464L74.7923 12.7464L74.5714 12.5254ZM74.5663 8.13707L74.3445 8.35718L74.3454 8.35811L74.5663 8.13707ZM70.1179 8.13214L69.897 7.91112L69.897 7.91113L70.1179 8.13214ZM70.1179 12.5254L69.897 12.7464L69.897 12.7464L70.1179 12.5254ZM70.6961 12.0296L70.4767 12.2522L70.477 12.2525L70.6961 12.0296ZM70.6961 8.62796L70.477 8.40511L70.4767 8.40542L70.6961 8.62796ZM73.9932 8.62796L73.7728 8.84957L73.7738 8.8505L73.9932 8.62796ZM73.9932 12.0296L73.7738 11.8071L73.7728 11.808L73.9932 12.0296ZM74.3504 12.3044C73.8136 12.841 73.153 13.1096 72.3472 13.1096V13.7346C73.31 13.7346 74.1323 13.4062 74.7923 12.7464L74.3504 12.3044ZM75.1533 10.3288C75.1533 11.1159 74.8869 11.7681 74.3504 12.3044L74.7923 12.7464C75.4501 12.0889 75.7783 11.2758 75.7783 10.3288H75.1533ZM74.3454 8.35811C74.8878 8.90019 75.1533 9.54786 75.1533 10.3288H75.7783C75.7783 9.38545 75.4493 8.57773 74.7872 7.91604L74.3454 8.35811ZM72.3472 7.54797C73.1475 7.54797 73.8077 7.81621 74.3445 8.35718L74.7881 7.91697C74.128 7.25169 73.3054 6.92297 72.3472 6.92297V7.54797ZM70.3388 8.35316C70.8755 7.81672 71.536 7.54797 72.3472 7.54797V6.92297C71.3795 6.92297 70.5572 7.25118 69.897 7.91112L70.3388 8.35316ZM69.5359 10.3288C69.5359 9.54172 69.8023 8.88948 70.3388 8.35315L69.897 7.91113C69.2392 8.56871 68.9109 9.38172 68.9109 10.3288H69.5359ZM70.3388 12.3044C69.8023 11.7681 69.5359 11.1159 69.5359 10.3288H68.9109C68.9109 11.2758 69.2392 12.0889 69.897 12.7464L70.3388 12.3044ZM72.3472 13.1096C71.536 13.1096 70.8755 12.8408 70.3388 12.3044L69.897 12.7464C70.5572 13.4064 71.3795 13.7346 72.3472 13.7346V13.1096ZM70.477 12.2525C70.9875 12.7543 71.6147 13.0069 72.3472 13.0069V12.3819C71.774 12.3819 71.3055 12.1905 70.9152 11.8068L70.477 12.2525ZM69.7067 10.3288C69.7067 11.0941 69.9626 11.7454 70.4767 12.2522L70.9155 11.8071C70.5312 11.4283 70.3317 10.9424 70.3317 10.3288H69.7067ZM70.4767 8.40542C69.9626 8.91219 69.7067 9.56349 69.7067 10.3288H70.3317C70.3317 9.71516 70.5312 9.22928 70.9155 8.8505L70.4767 8.40542ZM72.3472 7.65067C71.6147 7.65067 70.9875 7.90327 70.477 8.40511L70.9152 8.8508C71.3055 8.46707 71.774 8.27567 72.3472 8.27567V7.65067ZM74.2135 8.40635C73.7071 7.90286 73.0739 7.65067 72.3472 7.65067V8.27567C72.916 8.27567 73.3885 8.46749 73.7728 8.84956L74.2135 8.40635ZM74.9825 10.3288C74.9825 9.56349 74.7266 8.91219 74.2125 8.40542L73.7738 8.8505C74.158 9.22928 74.3575 9.71516 74.3575 10.3288H74.9825ZM74.2125 12.2522C74.7266 11.7454 74.9825 11.0941 74.9825 10.3288H74.3575C74.3575 10.9424 74.158 11.4283 73.7738 11.8071L74.2125 12.2522ZM72.3472 13.0069C73.0739 13.0069 73.7071 12.7547 74.2135 12.2512L73.7728 11.808C73.3885 12.1901 72.916 12.3819 72.3472 12.3819V13.0069Z" fill="white"/>
<path fill-rule="evenodd" clip-rule="evenodd" d="M76.2502 7.05864H77.6825L80.1516 10.9088L80.1494 10.8345L80.1495 7.05864H81.5552V13.5989H80.2569L77.6486 9.52357L77.6509 9.60109L77.6508 13.5989H76.2502V7.05864Z" fill="white"/>
<path fill-rule="evenodd" clip-rule="evenodd" d="M80.5999 22.8599H80.5367C80.1116 22.369 79.3006 21.925 78.2733 21.925C76.1174 21.925 74.1462 23.7701 74.1462 26.1358C74.1462 28.4878 76.1174 30.3181 78.2733 30.3181C79.3006 30.3181 80.1116 29.8704 80.5367 29.3647H80.5999V29.9666C80.5999 31.5713 79.7206 32.4334 78.3024 32.4334C77.146 32.4334 76.4286 31.6194 76.1326 30.9348L74.4866 31.6046C74.961 32.7171 76.2173 34.0861 78.3024 34.0861C80.5215 34.0861 82.394 32.8133 82.394 29.7163V22.1803H80.5999V22.8599ZM48.3922 23.2114V24.9949H52.7608C52.6331 25.9914 52.2915 26.7241 51.7677 27.2347C51.13 27.8514 50.1368 28.5359 48.3922 28.5359C45.7036 28.5359 43.5984 26.4207 43.5984 23.7997C43.5984 21.1788 45.7036 19.0636 48.3922 19.0636C49.8458 19.0636 50.9035 19.6174 51.6842 20.3352L52.9734 19.0784C51.8815 18.0621 50.4291 17.2813 48.3922 17.2813C44.7054 17.2813 41.607 20.2057 41.607 23.7997C41.607 27.3938 44.7054 30.3181 48.3922 30.3181C50.3848 30.3181 51.8815 29.6817 53.0582 28.4878C54.2639 27.3124 54.6396 25.6597 54.6396 24.3252C54.6396 23.9107 54.6042 23.5296 54.5409 23.2114H48.3922ZM59.6067 21.925C57.2244 21.925 55.2874 23.6887 55.2874 26.1222C55.2874 28.5359 57.2244 30.3181 59.6067 30.3181C61.9878 30.3181 63.9261 28.5359 63.9261 26.1222C63.9261 23.6887 61.9878 21.925 59.6067 21.925ZM64.7118 26.1222C64.7118 23.6887 66.6538 21.925 69.0311 21.925C71.4134 21.925 73.3555 23.6887 73.3555 26.1222C73.3555 28.5359 71.4134 30.3181 69.0311 30.3181C66.6538 30.3181 64.7118 28.5359 64.7118 26.1222ZM66.6045 26.1222C66.6045 27.6158 67.7267 28.6654 69.0311 28.6654C70.3355 28.6654 71.4628 27.6158 71.4628 26.1222C71.4628 24.6088 70.3355 23.5777 69.0311 23.5777C67.7267 23.5777 66.6045 24.6088 66.6045 26.1222ZM57.1751 26.1222C57.1751 27.6158 58.3011 28.6654 59.6068 28.6654C60.9112 28.6654 62.0334 27.6158 62.0334 26.1222C62.0334 24.6088 60.9112 23.5777 59.6068 23.5777C58.3011 23.5777 57.1751 24.6088 57.1751 26.1222ZM90.5633 21.925C92.7976 21.925 93.8945 23.6554 94.25 24.594L94.4487 25.0713L88.6908 27.3938C89.1311 28.2374 89.8181 28.6654 90.7758 28.6654C91.7399 28.6654 92.4067 28.2029 92.8963 27.5048L94.3639 28.4582C93.8945 29.1427 92.7533 30.3181 90.7758 30.3181C88.3302 30.3181 86.5058 28.473 86.5058 26.1222C86.5058 23.6258 88.3492 21.925 90.5633 21.925ZM88.3796 25.9914C88.3302 24.3733 89.6688 23.5444 90.6278 23.5444C91.3793 23.5444 92.017 23.9107 92.2295 24.4349L88.3796 25.9914ZM85.5924 30.0628H83.6996V17.729H85.5924V30.0628ZM76.039 26.1358C76.039 27.601 77.1308 28.6654 78.4352 28.6654C79.7207 28.6654 80.7341 27.601 80.7341 26.1358C80.7341 24.6569 79.7207 23.5777 78.4352 23.5777C77.1308 23.5777 76.039 24.6569 76.039 26.1358ZM103.111 17.729H98.5846V30.0628H100.472V25.3896H103.111C105.208 25.3896 107.264 23.9107 107.264 21.5587C107.264 19.2079 105.203 17.729 103.111 17.729ZM100.472 23.6739H103.161C104.57 23.6739 105.375 22.5133 105.375 21.5587C105.375 20.5856 104.57 19.4447 103.161 19.4447H100.472V23.6739ZM114.83 21.9016C113.466 21.9016 112.047 22.4887 111.464 23.7899L113.139 24.4744C113.5 23.7899 114.163 23.5679 114.864 23.5679C115.843 23.5679 116.836 24.1414 116.851 25.154V25.2835C116.51 25.0911 115.778 24.8062 114.879 24.8062C113.075 24.8062 111.236 25.7744 111.236 27.5813C111.236 29.234 112.714 30.2984 114.375 30.2984C115.646 30.2984 116.347 29.7397 116.787 29.0897H116.851V30.0431H118.674V25.3119C118.674 23.1251 116.999 21.9016 114.83 21.9016ZM113.124 27.6158C113.124 28.362 113.984 28.6605 114.602 28.6605C115.695 28.6605 116.703 27.8514 116.851 26.7093C116.346 26.4737 115.957 26.2949 115.126 26.2949C114.197 26.2949 113.124 26.6612 113.124 27.6158ZM125.317 22.1717L123.147 27.5184H123.082L120.839 22.1717H118.803L122.174 29.6435L120.251 33.8012H122.223L127.417 22.1717H125.317ZM110.194 30.0628L108.301 30.0628V17.729H110.194V30.0628Z" fill="white"/>
<path d="M10.6302 7.90026C10.3328 8.20367 10.1608 8.67606 10.1608 9.28781L10.1608 31.1087C10.1608 31.7205 10.3328 32.1929 10.6302 32.4963L10.7035 32.5629L23.2466 20.3401V20.0515L10.7035 7.82873L10.6302 7.90026Z" fill="url(#paint0_linear_1_3)"/>
<path d="M27.423 24.4164L23.2466 20.3401V20.0515L27.428 15.9752L27.5217 16.0282L32.4736 18.775C33.8868 19.5545 33.8868 20.8372 32.4736 21.6216L27.5217 24.3634L27.423 24.4164V24.4164Z" fill="url(#paint1_linear_1_3)"/>
<path d="M27.5217 24.3634L23.2466 20.1958L10.6302 32.4963C11.0996 32.9773 11.865 33.0353 12.7354 32.5543L27.5217 24.3634Z" fill="url(#paint2_linear_1_3)"/>
<path d="M27.5217 16.0282L12.7354 7.83736C11.865 7.36128 11.0996 7.41925 10.6302 7.90026L23.2466 20.1958L27.5217 16.0282Z" fill="url(#paint3_linear_1_3)"/>
<defs>
<linearGradient id="paint0_linear_1_3" x1="17.7525" y1="47.3893" x2="-2.262" y2="41.928" gradientUnits="userSpaceOnUse">
<stop stop-color="#00A0FF"/>
<stop offset="0.0066" stop-color="#00A1FF"/>
<stop offset="0.2601" stop-color="#00BEFF"/>
<stop offset="0.5122" stop-color="#00D2FF"/>
<stop offset="0.7604" stop-color="#00DFFF"/>
<stop offset="1" stop-color="#00E3FF"/>
</linearGradient>
<linearGradient id="paint1_linear_1_3" x1="34.3138" y1="30.2428" x2="9.82299" y2="30.2428" gradientUnits="userSpaceOnUse">
<stop stop-color="#FFE000"/>
<stop offset="0.4087" stop-color="#FFBD00"/>
<stop offset="0.7754" stop-color="#FFA500"/>
<stop offset="1" stop-color="#FF9C00"/>
</linearGradient>
<linearGradient id="paint2_linear_1_3" x1="10.2536" y1="26.5839" x2="-5.26946" y2="-0.22177" gradientUnits="userSpaceOnUse">
<stop stop-color="#FF3A44"/>
<stop offset="1" stop-color="#C31162"/>
</linearGradient>
<linearGradient id="paint3_linear_1_3" x1="0.779307" y1="35.893" x2="7.70707" y2="23.9222" gradientUnits="userSpaceOnUse">
<stop stop-color="#32A071"/>
<stop offset="0.0685" stop-color="#2DA771"/>
<stop offset="0.4762" stop-color="#15CF74"/>
<stop offset="0.8009" stop-color="#06E775"/>
<stop offset="1" stop-color="#00F076"/>
</linearGradient>
</defs>
</svg>
